<svg xmlns="http://www.w3.org/2000/svg" width="22" height="22" viewBox="0 0 22 22"><g transform="translate(-30.195 -1.5)"><path d="M46.195,23.5h-10a6.007,6.007,0,0,1-6-6V7.5a6.007,6.007,0,0,1,6-6h10a6.006,6.006,0,0,1,6,6v10A6.006,6.006,0,0,1,46.195,23.5Zm-10-20a4,4,0,0,0-4,4v10a4,4,0,0,0,4,4h10a4,4,0,0,0,4-4V7.5a4,4,0,0,0-4-4Z" fill="#fff"/><path d="M41.228,17.457a5,5,0,1,1,4.957-5.734h0A5,5,0,0,1,41.972,17.4,5.055,5.055,0,0,1,41.228,17.457Zm.01-8a3.087,3.087,0,0,0-.439.032,3,3,0,1,0,3.407,2.528h0a2.982,2.982,0,0,0-2.527-2.528A3.1,3.1,0,0,0,41.238,9.457Z" fill="#fff"/><path d="M46.706,8a1,1,0,1,1-.011-2h.011a1,1,0,0,1,0,2Z" fill="#fff"/></g></svg>