<svg xmlns="http://www.w3.org/2000/svg" width="250" height="299.279" viewBox="0 0 250 299.279"><g transform="translate(-7422.988 -1245.415)"><path d="M7912.583,1725.767h22.86l-11.21-18.066Z" transform="translate(-376.068 -355.09)" fill="#fff"/><path d="M8095.181,1634.9v-7.6l-4.308,1.663Z" transform="translate(-513.01 -293.329)" fill="#fff"/><path d="M8145.01,1624.505l-6.271-2.145v9.839c.18.074.361.146.54.22Z" transform="translate(-549.777 -289.538)" fill="#fff"/><path d="M7672.966,1393.18v-80.311a9.632,9.632,0,0,0-9.644-9.631q-13.092.016-26.187,0a19.354,19.354,0,0,0-1.307-7.739,170.644,170.644,0,0,0-7.386-17.705c-1.415-2.818-3.048-6.055-3-9.292.188-13.963-16.657-24.352-28.709-17.742-3.033-.97-6.018-2.182-9.009-3.244-15.177-5.387-25.363-.461-29.991,15.062-.161.541-.248,1-.737,1.279a23.157,23.157,0,0,1-3.33,1.321,35.177,35.177,0,0,0-6.958,3.218c-6.8,4.265-14.351,10.737-14.388,19.467a14.722,14.722,0,0,0,3.141,9.112c-.21.677-.475,1.4-.638,1.889a46.618,46.618,0,0,0-1.957,7.716,20.489,20.489,0,0,0,3.417,14.3,9.568,9.568,0,0,0-1.7,3.818c-1.1-3.908-2.336-7.773-3.572-11.644a25.614,25.614,0,0,0-4.164-7.758c-.1-.372-.183-.805-.26-1.151a78.745,78.745,0,0,0-4.021-13.034c-2.284-5.47-6.715-9.242-12.063-11.59a12.282,12.282,0,0,0-13.689,2.33,35.37,35.37,0,0,0-11.162,20.183c-4.852,3.046-7.188,8.234-8.058,14.213-.024.172-.047.357-.07.552q-.145-2.222-.26-4.442a9.625,9.625,0,0,0-9.624-9.124q-17.494.01-34.987,0a9.63,9.63,0,0,0-9.642,9.631v80.311c0,1.532-.083,4.575.066,5.846,5.784,49.341,27.046,92.42,68.267,121.449,15.5,10.92,37.146,23.993,56.532,24.219h.225c19.384-.226,41.027-13.3,56.53-24.219,41.222-29.029,62.483-72.108,68.269-121.449C7673.046,1397.755,7672.966,1394.711,7672.966,1393.18ZM7599.087,1512.6c-13.637,9.6-34.14,22.263-51.1,22.461-16.958-.2-37.46-12.858-51.1-22.461-38.467-27.091-58.208-67.016-63.994-112.634h92.99l7.9,7-41.318,34.94h26.957l27.8-23.531,26.858,23.531h26.693l-40.162-34.875,8.2-7.061h94.276C7657.3,1445.587,7637.554,1485.512,7599.087,1512.6Zm-76.027-119.424-14.485-12.828h16.158l14.836,12.828,7.687,6.648,7.813-6.648,15.075-12.828h16.524l-14.9,12.828-7.884,6.79-8.189,7.05,36.478,31.675h-16.892l-28.028-24.557-29.009,24.557h-17.013l37.453-31.675-7.96-7.05Zm140.273,0h-86.642l18.624-16.038h-26.352l-18.851,16.038-2.841,2.418-2.8-2.418-18.546-16.038H7500.11l18.107,16.038h-85.576v-80.31c11.607.013,22.84.006,35.006,0,1.155,21.878,4.138,55.2,34.918,57.706v-12.917c-6.929-.94-13.276-1.157-19.434-4.56-4.085-2.258-4.9-6.164-2.4-10.117a5.347,5.347,0,0,0,.811-3.853,18.5,18.5,0,0,1,3.795-13.484c2.722-3.748-.08-13.972,7.208-16.239,1.764-.548,2.088-1.547,2.237-3.122a26.008,26.008,0,0,1,8.531-17.323,2.688,2.688,0,0,1,3.319-.618c3.113,1.369,5.761,3.409,7.045,6.484a69.306,69.306,0,0,1,3.514,11.446,10.5,10.5,0,0,0,1.832,4.66,16.325,16.325,0,0,1,2.812,5.054c1.874,5.866,3.765,11.749,5.114,17.742.686,3.046.16,6.353.32,9.536a7.813,7.813,0,0,0,.9,2.71,12.55,12.55,0,0,0,1.128,1.486c2.058,3.1,1.521,6.059-1.958,7.284-3.679,1.3-7.641,1.825-11.5,2.556a25.156,25.156,0,0,1-4.16.157c-2.958.057-2.958.05-2.958,3.116,0,3.3,0,6.6,0,10.095q6.677.016,13.352.018l24.562-39.063a.984.984,0,0,0-.042-1.316c-.862-1.193-1.674-2.421-2.554-3.7.5-.444.984-.864,1.527-1.34.831,1.29,1.633,2.539,2.5,3.886l2.585-3.766c.5.455.944.863,1.442,1.323-.805,1.218-1.547,2.417-2.372,3.555a1.246,1.246,0,0,0-.027,1.64q11.08,17.581,22.113,35.191l2.226,3.6q3.952,0,7.907-.007a123.272,123.272,0,0,1,.117-12.886c.5-5.55-.158-10.5-4.025-14.773-1.031-1.142-1.606-2.693-2.624-3.857-1.586-1.814-3.462-3.375-5.042-5.193a76.97,76.97,0,0,1-7.208-8.9c-2.608-4.112-3.6-6.048-9.291-4.83-6.105,1.305-12.457-5.693-11.478-12.234,1.12-7.478,5.341-11.962,1.209-16.313-5.35-5.632,3.631-12.259,8.224-15.137,5.857-3.675,12.559-2.574,15.138-11.227,3.01-10.1,7.543-12.286,17.539-8.737,3.792,1.345,7.528,2.881,11.39,3.971a5.6,5.6,0,0,0,4.4-.638c5.783-4.673,15.612,1.6,15.519,8.445-.07,5.121,1.813,9.336,4.024,13.741a161.1,161.1,0,0,1,6.956,16.711c3.579,9.736-6.838,6.631-8.9,18.482-1.059,6.083-3.048,11.911-8.556,15.4-3.729,2.36-10.033,3.109-11.777,5.241-1.21,1.48-1.953,3.349-3.19,4.8-4.6,5.372-5.718,11.535-4.979,18.4a73.769,73.769,0,0,1,.11,9.516l2.934-.011c31.7-1.873,34.733-35.671,35.9-57.78,12.166.006,23.4.013,35,0Z" transform="translate(0)" fill="#fff"/><path d="M7809.795,2298.318c0-3.54-2.442-5.8-5.983-5.8h-11.645v18.336h3.61v-5.557c1.594-.851,2.407-1.064,5.771-1.064h1.628C7807.281,2304.229,7809.795,2301.929,7809.795,2298.318Zm-6.619,2.266h-1.628a11.654,11.654,0,0,0-5.771,1.062v-5.487h7.4c1.486,0,2.9.32,2.9,2.125C7806.079,2300.266,7804.91,2300.583,7803.176,2300.583Z" transform="translate(-283.573 -804.316)" fill="#fff"/><path d="M7867.486,2290.677l1.2,2.3-8.78,16.462h3.824l.106-.213c.6-.78,5.309-2.549,9.84-2.549h2.194l1.452,2.762h4l-9.913-18.763Zm6.157,12.672a16.22,16.22,0,0,0-7.433,1.593l4.355-8.389,3.573,6.8Z" transform="translate(-335.609 -802.904)" fill="#fff"/><path d="M7972.233,2305.291l-1.132-1.914c2.653-.812,4.212-2.549,4.212-5.343a5.462,5.462,0,0,0-5.771-5.523h-11.824v18.336h3.719V2304.4c1.486-.779,2.265-1.062,5.132-1.062h.248l2.832,4.6a5.273,5.273,0,0,0,5.346,2.9h1.591v-3.931h-1.272A3.234,3.234,0,0,1,7972.233,2305.291Zm-2.69-5.594h-2.974a10.742,10.742,0,0,0-5.132,1.062v-4.6h7.468c1.275,0,2.69.142,2.69,1.77A1.829,1.829,0,0,1,7969.542,2299.7Z" transform="translate(-410.736 -804.313)" fill="#fff"/><path d="M8071.745,2305.291l-2.691-4.532,6.054-8.248h-4.674l-8.46,11.752v-11.752h-3.859v18.336h3.859l4.639-7.08,2.547,4.177c2.159,2.655,3.435,2.9,5.346,2.9h1.593v-3.931h-1.272A3.341,3.341,0,0,1,8071.745,2305.291Z" transform="translate(-487.852 -804.313)" fill="#fff"/><path d="M7586.907,2146.231c-3.5,0-7.008-1.911-7.008-6.053s3.433-6.089,6.972-6.089a8.823,8.823,0,0,1,4.922,1.452l2.441-2.834a12.309,12.309,0,0,0-7.363-2.3c-5.485,0-10.831,3.467-10.831,9.7,0,6.194,5.238,9.805,10.8,9.805a11.567,11.567,0,0,0,7.539-2.62l-2.122-3.046A8.178,8.178,0,0,1,7586.907,2146.231Z" transform="translate(-117.543 -679.78)" fill="#fff"/><path d="M7684.688,2139.937a5.229,5.229,0,0,1-2.3.459c-1.84,0-4-.529-5.522-.529a5.047,5.047,0,0,0-2.159.459V2133h-3.611v18.336h3.611v-7.292a5.672,5.672,0,0,1,2.3-.425c1.8,0,3.611.494,5.521.494a4.649,4.649,0,0,0,2.16-.459v7.681h3.61V2133h-3.61Z" transform="translate(-190.575 -681.77)" fill="#fff"/><path d="M7772.661,2147.168l1.45,2.76h4l-9.911-18.761h-3.931l1.2,2.3-8.778,16.46h3.822l.106-.211c.6-.779,5.311-2.549,9.843-2.549Zm-9.665-1.735,4.354-8.389,3.576,6.8h-.5A16.2,16.2,0,0,0,7763,2145.432Z" transform="translate(-256.327 -680.362)" fill="#fff"/><path d="M7872.6,2147.654h-9.735V2133h-3.788v18.336H7872.6Z" transform="translate(-334.966 -681.77)" fill="#fff"/><path d="M7942.329,2147.654h-9.735V2133h-3.788v18.336h13.523Z" transform="translate(-388.527 -681.77)" fill="#fff"/><path d="M8015.173,2147.652h-11.5v-2.9c1.593-.849,2.372-1.06,5.735-1.06h2.689v-3.646h-2.689a11.46,11.46,0,0,0-5.735,1.062v-4.462h10.83V2133H8000.06v18.336h15.113Z" transform="translate(-443.259 -681.768)" fill="#fff"/><path d="M8090.777,2145.741,8079.7,2133h-4.566l1.8,2.725v15.611h3.648v-11.928l10.193,11.928h3.646V2133h-3.646Z" transform="translate(-500.923 -681.768)" fill="#fff"/><path d="M8172.934,2140.108c0,6.194,5.237,9.805,10.8,9.805a11.572,11.572,0,0,0,7.541-2.62V2138.9h-7.047l1.56,3.432h1.875v2.939a8.289,8.289,0,0,1-3.859.955c-3.5,0-7.008-1.911-7.008-6.053s3.433-6.089,6.973-6.089a8.824,8.824,0,0,1,4.923,1.452l2.441-2.834a12.309,12.309,0,0,0-7.364-2.3C8178.278,2130.409,8172.934,2133.876,8172.934,2140.108Z" transform="translate(-576.047 -679.78)" fill="#fff"/><path d="M8286.92,2147.652h-11.506v-2.9c1.591-.849,2.372-1.06,5.734-1.06h2.692v-3.646h-2.692a11.456,11.456,0,0,0-5.734,1.062v-4.462h10.834V2133H8271.8v18.336h15.116Z" transform="translate(-651.99 -681.768)" fill="#fff"/></g></svg>